<svg width="85" height="29" viewBox="0 0 85 29" fill="none" xmlns="http://www.w3.org/2000/svg">
<g clip-path="url(#clip0_1443_1494)">
<path d="M9.65437 5.96021C9.65437 7.7911 9.65437 9.62732 9.66505 11.4582C9.66505 13.0382 9.15261 14.5755 7.6847 15.3869C5.97125 16.3263 3.53719 16.0861 1.62624 15.8886C1.55151 15.8886 1.48745 15.8726 1.41806 15.8673C1.48211 14.5488 1.45543 13.2144 1.39137 11.9012C1.3113 10.1184 2.38955 7.99393 4.30584 7.69501C6.38227 7.3694 8.1918 7.14522 9.17396 5.99758C9.20599 5.96555 9.23802 5.92818 9.26471 5.89082C9.40883 5.69332 9.56363 5.50649 9.71842 5.31433C9.67038 5.52251 9.65437 5.74136 9.65437 5.95487V5.96021Z" fill="white"/>
<path d="M3.37423 27.8294C4.80478 27.9201 6.246 27.8988 7.67655 27.9255C9.34729 27.9522 11.0607 28.1603 12.6728 27.8668C14.9894 27.4451 17.5943 25.9344 18.4537 23.6979C19.249 21.6268 18.8754 19.1554 17.5035 17.4152C17.4075 17.2978 17.306 17.1804 17.1939 17.0629C15.8061 15.547 13.6549 14.7516 11.6052 15.0239C9.05905 15.3602 6.81715 17.3619 6.15526 19.844C5.74424 21.3919 6.10188 23.036 5.86167 24.6107C5.66417 25.9131 4.54856 27.2476 3.3689 27.8294H3.37423Z" fill="white"/>
<path d="M17.6835 0.0511475C17.5554 0.440811 17.7102 0.862501 17.8757 1.23615C20.0002 5.97083 25.6903 9.17354 25.4928 14.8637C25.4021 17.4365 24.121 20.4578 21.9698 21.9844C21.815 22.0965 21.6709 22.1926 21.4894 22.2459C21.0784 21.4773 21.0357 20.3563 20.6888 19.513C20.251 18.4507 19.6746 17.4099 18.8685 16.5878C18.0946 15.8032 17.1284 15.3494 16.3544 14.5808C14.7317 12.9581 13.7068 10.7375 13.5734 8.44226C13.3812 5.17549 15.0146 1.93007 17.6889 0.0618232L17.6835 0.0511475Z" fill="white"/>
<path d="M2.90933 11.4741C2.90933 11.4741 2.8346 10.0489 4.29718 10.1183C4.29718 10.1183 4.83096 11.677 2.90933 11.4741Z" fill="#240053" stroke="white" stroke-width="0.261407" stroke-miterlimit="10"/>
<path d="M2.42339 23.5591C3.76179 23.5591 4.84677 22.4741 4.84677 21.1357C4.84677 19.7973 3.76179 18.7123 2.42339 18.7123C1.08499 18.7123 0 19.7973 0 21.1357C0 22.4741 1.08499 23.5591 2.42339 23.5591Z" fill="white"/>
<path d="M31.2223 23.5964L35.8663 11.1859H38.3537L42.9977 23.5964H40.5689L39.432 20.5859H34.804L33.6671 23.5964H31.2117H31.2223ZM35.5834 18.5735H38.6793L37.1153 13.8335L35.5834 18.5735Z" fill="white"/>
<path d="M44.2417 23.5964V15.1893H46.4409V17.1589C46.6437 16.4383 46.964 15.8992 47.4017 15.5416C47.8341 15.1839 48.3091 15.0024 48.8269 15.0024C49.3447 15.0024 49.8091 15.1039 50.2094 15.312L49.8304 17.2817C49.4941 17.1269 49.0725 17.0522 48.5547 17.0522C47.1455 17.0522 46.4462 18.2425 46.4462 20.6179V23.5964H44.247H44.2417Z" fill="white"/>
<path d="M51.2826 21.1997C51.0584 20.6499 50.9463 20.0468 50.9463 19.4009C50.9463 18.755 51.0584 18.1518 51.2826 17.5913C51.5068 17.0309 51.8057 16.5665 52.1847 16.1875C52.5637 15.8138 53.0067 15.5203 53.5085 15.3121C54.0156 15.1039 54.544 14.9971 55.0991 14.9971C55.6543 14.9971 56.1987 15.1146 56.6791 15.3441C57.1596 15.5736 57.5118 15.8992 57.7414 16.3103V10.5988H59.9406V23.5911H57.7414V22.4488C57.5118 22.8598 57.1595 23.1854 56.6738 23.4149C56.1934 23.6498 55.665 23.7619 55.0991 23.7619C54.5333 23.7619 54.0156 23.6551 53.5138 23.447C53.012 23.2388 52.569 22.9505 52.19 22.5769C51.811 22.2032 51.5068 21.7442 51.2826 21.1891V21.1997ZM53.2522 19.3688C53.2522 20.0468 53.4658 20.5966 53.8874 21.0236C54.3145 21.4506 54.8376 21.6641 55.4621 21.6641C56.0866 21.6641 56.6097 21.4506 57.0528 21.0289C57.4958 20.6072 57.7093 20.0521 57.7093 19.3742C57.7093 18.6963 57.4852 18.1465 57.0368 17.7355C56.5884 17.3245 56.0653 17.1216 55.4621 17.1216C54.8589 17.1216 54.3091 17.3298 53.8874 17.7461C53.4658 18.1625 53.2522 18.707 53.2522 19.3795V19.3688Z" fill="white"/>
<path d="M62.0542 11.9225C62.0542 11.5542 62.193 11.2393 62.4759 10.9831C62.7588 10.7269 63.0897 10.5988 63.4741 10.5988C63.8584 10.5988 64.184 10.7269 64.4616 10.9831C64.7391 11.2393 64.8726 11.5489 64.8726 11.9225C64.8726 12.2962 64.7338 12.6111 64.4616 12.8673C64.1893 13.1236 63.8584 13.2517 63.4741 13.2517C63.0897 13.2517 62.7481 13.1236 62.4706 12.8673C62.193 12.6111 62.0542 12.2962 62.0542 11.9225ZM62.3638 23.5964V15.1893H64.563V23.5964H62.3638Z" fill="white"/>
<path d="M67.0388 23.5965V13.2517H69.238V23.5965H67.0388Z" fill="white"/>
<path d="M71.7136 23.5965V10.6041H73.9128V23.5965H71.7136Z" fill="white"/>
<path d="M75.8789 19.3795C75.8789 18.7229 75.9963 18.1197 76.2365 17.5593C76.4768 17.0041 76.797 16.5397 77.1974 16.1714C77.5977 15.8031 78.0568 15.5149 78.5745 15.312C79.0923 15.1092 79.6314 15.0024 80.1919 15.0024C80.6563 15.0024 81.1367 15.0985 81.6331 15.296C82.1295 15.4935 82.5192 15.8031 82.8021 16.2248V15.1839H85.0013V23.591H82.8021V22.5021C82.5566 22.9025 82.1776 23.2121 81.6651 23.4256C81.1527 23.6391 80.6616 23.7458 80.1972 23.7458C79.4446 23.7458 78.7453 23.5697 78.0941 23.2227C77.4429 22.8758 76.9091 22.358 76.4981 21.6801C76.0871 21.0022 75.8842 20.2335 75.8842 19.3688L75.8789 19.3795ZM78.1849 19.3795C78.1849 20.036 78.4144 20.5752 78.8788 21.0022C79.3432 21.4292 79.8823 21.6427 80.5015 21.6427C81.1207 21.6427 81.6651 21.4399 82.1189 21.0289C82.5726 20.6179 82.7968 20.0681 82.7968 19.3795C82.7968 18.6909 82.5672 18.1411 82.1082 17.7301C81.6491 17.3191 81.11 17.1162 80.4962 17.1162C79.8823 17.1162 79.3272 17.3297 78.8681 17.7514C78.4091 18.1785 78.1795 18.7176 78.1795 19.3795H78.1849Z" fill="white"/>
</g>
<defs>
<clipPath id="clip0_1443_1494">
<rect width="85" height="27.9704" fill="white" transform="translate(0 0.0511475)"/>
</clipPath>
</defs>
</svg>
